<svg version="1.1" xmlns="http://www.w3.org/2000/svg" xmlns:xlink="http://www.w3.org/1999/xlink" viewBox="36 36 184 184"><g id="mainSVGLayer" fill="#f6a18d" fill-rule="nonzero" stroke="none" stroke-width="1" stroke-linecap="butt" stroke-linejoin="miter" stroke-miterlimit="10" stroke-dasharray="" stroke-dashoffset="0" font-family="none" font-weight="none" font-size="none" text-anchor="none" style="mix-blend-mode: normal"><g transform="translate(36,36) scale(6.13333,6.13333)" id="mainSVG"><path d="M2.59123,7.8325c0.24181,-0.3075 0.56028,-0.72375 0.81531,-1.02125c0.76378,-0.82 0.86288,-0.9275 1.55795,-1.53375c0.20614,-0.16 0.4506,-0.3525 0.68977,-0.53375c-1.76408,1.4125 -1.98872,2.97625 -0.36999,3.9425c-0.00264,0 -0.00264,0 -0.00264,0.0025c2.26358,1.29 7.22417,1.01125 11.13817,-0.64125c3.7912,-1.6 5.1905,-3.88875 3.3194,-5.24875c-1.6425,-0.29125 -3.6008,-0.325 -5.6728,-0.0625l-0.2154,-0.33625l0.1784,-0.5575c1.2183,-0.10375 2.3759,-0.07875 3.3749,0.0825c0.2418,0.03875 0.5603,0.105 0.7981,0.1525c0.4599,0.10625 0.7096,0.17 1.0096,0.26125c0.3065,0.08625 0.5682,0.1725 1.0241,0.3325c0.4466,0.16625 0.6395,0.24125 0.9976,0.41c0.4011,0.17308 0.7907,0.36885 1.1668,0.58625c2.9812,1.77375 1.1272,5.01 -4.1333,7.2275c-5.2461,2.21 -11.93109,2.5575 -14.92673,0.805c-0.00132,-0.0025 -0.00529,-0.005 -0.01322,-0.0075h0.00529c-1.63591,-0.98 -1.8077,-2.4025 -0.74131,-3.86zM16.2401,20.2325l-0.0423,-1.9925l-1.4971,-1.575c-4.94609,1.06 -9.80757,0.8325 -12.51118,-0.6737c-0.00925,-0.0101 -0.03172,-0.02 -0.04097,-0.03c-1.5302,-0.8913 -1.90812,-2.0413 -1.79316,-3.2913c-0.3581,1.8287 -0.38717,2.4887 -0.33564,4.0537c0.06343,0.98 0.66203,1.8838 1.86584,2.5963l0.00925,0.01c2.882,1.695 8.88656,2.0625 14.34526,0.9025zM22.4838,22.5138c-6.981,2.6487 -15.71823,2.805 -19.51333,0.3537c0.40985,0.9475 0.96751,1.8314 1.65441,2.6225c3.48325,2.25 11.50292,2.1063 17.90782,-0.325c3.7488,-1.4213 6.1142,-3.3125 6.7352,-5.085l0.1745,-0.5338c0.4136,-1.3524 0.4915,-2.4787 0.5576,-3.4812c-0.0753,2.1763 -2.7855,4.6512 -7.5162,6.4488zM7.07346,27.615c0.21936,0.1975 0.90913,0.9988 4.40424,1.8838c0.9448,0.1975 3.3234,0.8312 7.7171,-0.09l0.0264,-0.3788l-0.3475,-0.515c-4.0766,0.9125 -8.6051,0.6075 -11.80024,-0.9zM17.1611,11.8538l3.7119,2.6612c0,0 0.7942,0.5412 0.0449,0.9212c-0.7466,0.3763 -2.664,1.2975 -2.664,1.2975l-1.8935,-0.6687l-0.9501,0.4l1.6755,1.3762l0.0132,2.1413l0.9845,-0.4137l0.6528,-1.8088c0,0 2.0046,-0.73 2.8,-1.005c0.7995,-0.2688 0.6925,0.6512 0.6925,0.6512l-0.3938,4.3888l1.3082,-0.55l2.1539,-5.9213c0,0 1.1417,-0.525 1.9451,-0.9862c0.8021,-0.4612 1.077,-1.2263 1.077,-1.2263c0,0 -0.7823,-0.3187 -1.6835,-0.0625c-0.9012,0.2538 -2.076,0.7063 -2.076,0.7063l-6.0943,-2.4488zM9.30797,3.43375l2.51993,1.89875l0.6885,-0.0975l-1.3717,-1.70375c0,0 -0.2986,-0.3525 0.1031,-0.43625c0.4044,-0.085 1.4271,-0.2825 1.4271,-0.2825l0.7691,0.58125l0.518,-0.0725l-0.5867,-0.8825l0.3092,-0.97875l-0.5008,0.06875l-0.5933,0.745c0,0 -1.0413,0.0925 -1.4509,0.125c-0.4123,0.03 -0.2353,-0.38875 -0.2353,-0.38875l0.7902,-2.01l-0.6924,0.09625l-1.82352,2.51125c0,0 -0.60785,0.105 -1.04788,0.22375c-0.44136,0.1175 -0.67393,0.44 -0.67393,0.44c0,0 0.32375,0.2475 0.77964,0.23875c0.45985,-0.00875 1.07166,-0.07625 1.07166,-0.07625zM21.7623,27.8312l-1.6306,-0.8062l-0.3753,0.1238l0.966,0.8174c0,0 0.2061,0.1663 -0.0106,0.255c-0.2167,0.0876 -0.7691,0.3026 -0.7691,0.3026l-0.4559,-0.1925l-0.2709,0.0924l0.3793,0.3825l-0.037,0.5588l0.2828,-0.0925l0.2114,-0.4537c0,0 0.5735,-0.1613 0.8021,-0.2188c0.2273,-0.0588 0.1757,0.1938 0.1757,0.1938l-0.2154,1.2062l0.3767,-0.1238l0.7386,-1.595c0,0 0.3264,-0.1212 0.5603,-0.2325c0.2339,-0.1112 0.3264,-0.3162 0.3264,-0.3162c0,0 -0.2075,-0.1075 -0.4638,-0.0538c-0.2577,0.0513 -0.5907,0.1525 -0.5907,0.1525z"></path></g></g></svg>